<svg width="46" height="46" viewBox="0 0 46 46" fill="none" xmlns="http://www.w3.org/2000/svg">
<path d="M14.9 34.25L23 26.15L31.1 34.25L34.25 31.1L26.15 23L34.25 14.9L31.1 11.75L23 19.85L14.9 11.75L11.75 14.9L19.85 23L11.75 31.1L14.9 34.25ZM23 45.5C19.8875 45.5 16.9625 44.9094 14.225 43.7281C11.4875 42.5469 9.10625 40.9438 7.08125 38.9188C5.05625 36.8938 3.45313 34.5125 2.27188 31.775C1.09062 29.0375 0.5 26.1125 0.5 23C0.5 19.8875 1.09062 16.9625 2.27188 14.225C3.45313 11.4875 5.05625 9.10625 7.08125 7.08125C9.10625 5.05625 11.4875 3.45313 14.225 2.27188C16.9625 1.09062 19.8875 0.5 23 0.5C26.1125 0.5 29.0375 1.09062 31.775 2.27188C34.5125 3.45313 36.8938 5.05625 38.9188 7.08125C40.9438 9.10625 42.5469 11.4875 43.7281 14.225C44.9094 16.9625 45.5 19.8875 45.5 23C45.5 26.1125 44.9094 29.0375 43.7281 31.775C42.5469 34.5125 40.9438 36.8938 38.9188 38.9188C36.8938 40.9438 34.5125 42.5469 31.775 43.7281C29.0375 44.9094 26.1125 45.5 23 45.5ZM23 41C28.025 41 32.2812 39.2563 35.7687 35.7687C39.2563 32.2812 41 28.025 41 23C41 17.975 39.2563 13.7188 35.7687 10.2313C32.2812 6.74375 28.025 5 23 5C17.975 5 13.7188 6.74375 10.2313 10.2313C6.74375 13.7188 5 17.975 5 23C5 28.025 6.74375 32.2812 10.2313 35.7687C13.7188 39.2563 17.975 41 23 41Z" fill="#2F2929"/>
</svg>
