<svg width="426" height="80" viewBox="0 0 426 80" fill="none" xmlns="http://www.w3.org/2000/svg">
<path d="M0 78.8981V1.76308H11.8707V78.8981H0ZM5.27588 46.0606V34.6006H44.9549V46.0606H5.27588ZM5.27588 13.2231V1.76308H49.9011V13.2231H5.27588Z" fill="#332F2F"/>
<path d="M66.1203 78.8981V1.76308H77.991V67.438H114.043V78.8981H66.1203Z" fill="#332F2F"/>
<path d="M135.304 78.8981V40.4408L136.074 45.8402L104.968 1.76308H126.182L149.923 35.9229L140.251 35.5923L161.684 1.76308H182.238L152.451 47.0523L154.1 39.5592V78.8981H135.304Z" fill="#85C16F"/>
<path d="M222.389 80C216.527 80 211.178 79.0083 206.342 77.0248C201.505 75.0413 197.292 72.2498 193.701 68.6501C190.111 65.0505 187.326 60.8265 185.348 55.978C183.37 51.1295 182.38 45.8035 182.38 40C182.38 34.1965 183.37 28.8705 185.348 24.022C187.326 19.1736 190.111 14.9495 193.701 11.3499C197.292 7.75023 201.505 4.95867 206.342 2.97521C211.178 0.991736 216.49 0 222.279 0C228.068 0 233.38 0.991736 238.217 2.97521C243.053 4.95867 247.266 7.75023 250.857 11.3499C254.447 14.9495 257.195 19.1736 259.1 24.022C261.079 28.8705 262.068 34.1965 262.068 40C262.068 45.73 261.079 51.056 259.1 55.978C257.195 60.8265 254.447 65.0505 250.857 68.6501C247.266 72.2498 243.053 75.0413 238.217 77.0248C233.38 79.0083 228.105 80 222.389 80ZM222.279 62.3691C225.283 62.3691 228.031 61.8182 230.523 60.7163C233.087 59.6143 235.286 58.0716 237.118 56.0882C239.023 54.0312 240.488 51.6437 241.514 48.9256C242.54 46.2075 243.053 43.2323 243.053 40C243.053 36.7677 242.54 33.7925 241.514 31.0744C240.488 28.3563 239.023 26.0055 237.118 24.022C235.286 21.9651 233.087 20.3857 230.523 19.2837C228.031 18.1818 225.283 17.6308 222.279 17.6308C219.275 17.6308 216.49 18.1818 213.926 19.2837C211.434 20.3857 209.236 21.9651 207.331 24.022C205.426 26.0055 203.96 28.3563 202.934 31.0744C201.982 33.7925 201.505 36.7677 201.505 40C201.505 43.2323 201.982 46.2443 202.934 49.0358C203.96 51.7539 205.426 54.1047 207.331 56.0882C209.236 58.0716 211.434 59.6143 213.926 60.7163C216.49 61.8182 219.275 62.3691 222.279 62.3691Z" fill="#85C16F"/>
<path d="M276.524 78.8981V1.76308H308.729C314.372 1.76308 319.537 2.71809 324.227 4.6281C328.917 6.46464 332.947 9.10927 336.318 12.562C339.762 16.0147 342.4 20.0918 344.232 24.7934C346.063 29.4949 346.979 34.674 346.979 40.3306C346.979 45.9871 346.063 51.2029 344.232 55.978C342.4 60.6795 339.762 64.7567 336.318 68.2094C332.947 71.5886 328.917 74.2332 324.227 76.1432C319.537 77.9798 314.372 78.8981 308.729 78.8981H276.524ZM295.21 66.1157L292.682 62.3691H308.18C311.257 62.3691 314.005 61.8549 316.423 60.8264C318.841 59.7245 320.893 58.2186 322.578 56.3085C324.337 54.3985 325.693 52.0845 326.645 49.3664C327.598 46.6483 328.074 43.6364 328.074 40.3306C328.074 37.0248 327.598 34.0129 326.645 31.2948C325.693 28.5767 324.337 26.2626 322.578 24.3526C320.893 22.4426 318.841 20.9734 316.423 19.9449C314.005 18.843 311.257 18.292 308.18 18.292H292.352L295.21 14.7658V66.1157Z" fill="#85C16F"/>
<path d="M349.5 78.8981L379.946 1.76308H395.774L426 78.8981H407.095L392.586 39.7796C392 38.2369 391.414 36.584 390.827 34.8209C390.241 33.0578 389.655 31.258 389.069 29.4215C388.483 27.5115 387.896 25.6749 387.31 23.9118C386.797 22.0753 386.358 20.3857 385.991 18.843L389.289 18.7328C388.849 20.5693 388.336 22.3691 387.75 24.1322C387.237 25.8953 386.687 27.6584 386.101 29.4215C385.588 31.1111 385.002 32.8375 384.342 34.6006C383.683 36.2902 383.06 38.0533 382.474 39.8898L367.965 78.8981H349.5ZM364.008 64.1322L369.834 50.0275H405.226L410.942 64.1322H364.008Z" fill="#85C16F"/>
</svg>
