<svg width="426" height="118" viewBox="0 0 426 118" fill="none" xmlns="http://www.w3.org/2000/svg">
<path d="M4.8 117.9L7.98 110.55L8.01 113.01L0.15 95.25H3.75L8.67 106.83C8.77 107.03 8.89 107.34 9.03 107.76C9.17 108.16 9.29 108.56 9.39 108.96L8.61 109.14C8.77 108.72 8.92 108.3 9.06 107.88C9.22 107.46 9.37 107.04 9.51 106.62L13.62 95.25H17.28L10.8 111L8.13 117.9H4.8Z" fill="#2F2929"/>
<path d="M26.3787 111.3C24.8387 111.3 23.4587 110.95 22.2387 110.25C21.0387 109.53 20.0887 108.56 19.3887 107.34C18.6887 106.1 18.3387 104.69 18.3387 103.11C18.3387 101.53 18.6887 100.13 19.3887 98.91C20.0887 97.67 21.0387 96.7 22.2387 96C23.4587 95.28 24.8387 94.92 26.3787 94.92C27.8987 94.92 29.2587 95.28 30.4587 96C31.6787 96.7 32.6387 97.67 33.3387 98.91C34.0387 100.13 34.3887 101.53 34.3887 103.11C34.3887 104.69 34.0387 106.1 33.3387 107.34C32.6387 108.56 31.6787 109.53 30.4587 110.25C29.2587 110.95 27.8987 111.3 26.3787 111.3ZM26.3787 108.48C27.3187 108.48 28.1587 108.25 28.8987 107.79C29.6387 107.31 30.2187 106.67 30.6387 105.87C31.0587 105.05 31.2587 104.13 31.2387 103.11C31.2587 102.07 31.0587 101.15 30.6387 100.35C30.2187 99.53 29.6387 98.89 28.8987 98.43C28.1587 97.97 27.3187 97.74 26.3787 97.74C25.4387 97.74 24.5887 97.98 23.8287 98.46C23.0887 98.92 22.5087 99.56 22.0887 100.38C21.6687 101.18 21.4687 102.09 21.4887 103.11C21.4687 104.13 21.6687 105.05 22.0887 105.87C22.5087 106.67 23.0887 107.31 23.8287 107.79C24.5887 108.25 25.4387 108.48 26.3787 108.48Z" fill="#2F2929"/>
<path d="M43.2757 111.3C42.1557 111.3 41.1757 111.04 40.3357 110.52C39.5157 110 38.8757 109.27 38.4157 108.33C37.9757 107.39 37.7557 106.27 37.7557 104.97V95.25H40.8457V104.13C40.8457 105.05 40.9857 105.85 41.2657 106.53C41.5657 107.19 41.9857 107.7 42.5257 108.06C43.0857 108.42 43.7557 108.6 44.5357 108.6C45.1157 108.6 45.6457 108.51 46.1257 108.33C46.6057 108.13 47.0157 107.86 47.3557 107.52C47.7157 107.18 47.9957 106.77 48.1957 106.29C48.3957 105.81 48.4957 105.29 48.4957 104.73V95.25H51.5857V111H48.4957V107.7L49.0357 107.34C48.7957 108.08 48.3857 108.75 47.8057 109.35C47.2457 109.95 46.5757 110.43 45.7957 110.79C45.0157 111.13 44.1757 111.3 43.2757 111.3Z" fill="#2F2929"/>
<path d="M55.9198 111V95.25H59.0398V100.2L58.7398 99C58.9598 98.24 59.3298 97.55 59.8498 96.93C60.3898 96.31 60.9998 95.82 61.6798 95.46C62.3798 95.1 63.0998 94.92 63.8398 94.92C64.1798 94.92 64.4998 94.95 64.7998 95.01C65.1198 95.07 65.3698 95.14 65.5498 95.22L64.7398 98.58C64.4998 98.48 64.2298 98.4 63.9298 98.34C63.6498 98.26 63.3698 98.22 63.0898 98.22C62.5498 98.22 62.0298 98.33 61.5298 98.55C61.0498 98.75 60.6198 99.04 60.2398 99.42C59.8798 99.78 59.5898 100.21 59.3698 100.71C59.1498 101.19 59.0398 101.72 59.0398 102.3V111H55.9198Z" fill="#2F2929"/>
<path d="M80.0276 111L74.7176 95.13H79.1576L82.3976 105.93L81.7376 105.84L85.3076 97.41H87.8276L91.5476 105.87L90.8276 105.93L94.0676 95.13H98.5076L93.1076 111H90.0176L86.2676 101.97L86.7476 102.03L83.0876 111H80.0276Z" fill="#85C16F"/>
<path d="M101.455 111V95.13H105.715V111H101.455ZM103.555 91.86C102.735 91.86 102.095 91.66 101.635 91.26C101.175 90.86 100.945 90.29 100.945 89.55C100.945 88.87 101.175 88.32 101.635 87.9C102.115 87.46 102.755 87.24 103.555 87.24C104.375 87.24 105.015 87.45 105.475 87.87C105.935 88.27 106.165 88.83 106.165 89.55C106.165 90.25 105.925 90.81 105.445 91.23C104.985 91.65 104.355 91.86 103.555 91.86Z" fill="#85C16F"/>
<path d="M115.605 111.3C114.125 111.3 112.805 111.06 111.645 110.58C110.505 110.08 109.585 109.4 108.885 108.54L111.525 106.26C112.145 106.92 112.835 107.4 113.595 107.7C114.355 107.98 115.115 108.12 115.875 108.12C116.175 108.12 116.445 108.09 116.685 108.03C116.945 107.95 117.165 107.85 117.345 107.73C117.525 107.59 117.655 107.43 117.735 107.25C117.835 107.05 117.885 106.84 117.885 106.62C117.885 106.18 117.705 105.83 117.345 105.57C117.145 105.47 116.835 105.35 116.415 105.21C115.995 105.05 115.455 104.88 114.795 104.7C113.775 104.44 112.905 104.14 112.185 103.8C111.485 103.44 110.925 103.04 110.505 102.6C110.145 102.18 109.865 101.73 109.665 101.25C109.485 100.75 109.395 100.2 109.395 99.6C109.395 98.88 109.555 98.23 109.875 97.65C110.195 97.05 110.635 96.54 111.195 96.12C111.775 95.7 112.435 95.38 113.175 95.16C113.915 94.92 114.695 94.8 115.515 94.8C116.335 94.8 117.135 94.9 117.915 95.1C118.695 95.3 119.415 95.59 120.075 95.97C120.755 96.33 121.345 96.76 121.845 97.26L119.565 99.78C119.205 99.44 118.795 99.13 118.335 98.85C117.895 98.57 117.435 98.35 116.955 98.19C116.475 98.03 116.045 97.95 115.665 97.95C115.325 97.95 115.015 97.98 114.735 98.04C114.475 98.1 114.255 98.19 114.075 98.31C113.895 98.43 113.755 98.59 113.655 98.79C113.575 98.97 113.535 99.17 113.535 99.39C113.535 99.61 113.585 99.82 113.685 100.02C113.805 100.22 113.965 100.39 114.165 100.53C114.385 100.65 114.705 100.79 115.125 100.95C115.565 101.11 116.155 101.29 116.895 101.49C117.855 101.75 118.665 102.04 119.325 102.36C120.005 102.68 120.545 103.05 120.945 103.47C121.285 103.83 121.535 104.24 121.695 104.7C121.855 105.16 121.935 105.67 121.935 106.23C121.935 107.21 121.655 108.09 121.095 108.87C120.555 109.63 119.805 110.23 118.845 110.67C117.885 111.09 116.805 111.3 115.605 111.3Z" fill="#85C16F"/>
<path d="M132.502 111.3C130.782 111.3 129.282 110.95 128.002 110.25C126.722 109.55 125.722 108.59 125.002 107.37C124.282 106.15 123.922 104.75 123.922 103.17C123.922 101.95 124.122 100.83 124.522 99.81C124.922 98.79 125.482 97.91 126.202 97.17C126.922 96.41 127.772 95.83 128.752 95.43C129.752 95.01 130.832 94.8 131.992 94.8C133.072 94.8 134.072 95 134.992 95.4C135.912 95.78 136.702 96.33 137.362 97.05C138.042 97.75 138.562 98.58 138.922 99.54C139.282 100.5 139.442 101.55 139.402 102.69L139.372 104.01H126.622L125.932 101.4H135.862L135.382 101.94V101.28C135.342 100.74 135.162 100.25 134.842 99.81C134.542 99.37 134.152 99.03 133.672 98.79C133.192 98.55 132.652 98.43 132.052 98.43C131.172 98.43 130.422 98.6 129.802 98.94C129.202 99.28 128.742 99.78 128.422 100.44C128.102 101.1 127.942 101.9 127.942 102.84C127.942 103.8 128.142 104.63 128.542 105.33C128.962 106.03 129.542 106.58 130.282 106.98C131.042 107.36 131.932 107.55 132.952 107.55C133.652 107.55 134.292 107.44 134.872 107.22C135.452 107 136.072 106.62 136.732 106.08L138.772 108.93C138.192 109.45 137.552 109.89 136.852 110.25C136.152 110.59 135.432 110.85 134.692 111.03C133.952 111.21 133.222 111.3 132.502 111.3Z" fill="#85C16F"/>
<path d="M147.89 111.3C146.41 111.3 145.09 111.06 143.93 110.58C142.79 110.08 141.87 109.4 141.17 108.54L143.81 106.26C144.43 106.92 145.12 107.4 145.88 107.7C146.64 107.98 147.4 108.12 148.16 108.12C148.46 108.12 148.73 108.09 148.97 108.03C149.23 107.95 149.45 107.85 149.63 107.73C149.81 107.59 149.94 107.43 150.02 107.25C150.12 107.05 150.17 106.84 150.17 106.62C150.17 106.18 149.99 105.83 149.63 105.57C149.43 105.47 149.12 105.35 148.7 105.21C148.28 105.05 147.74 104.88 147.08 104.7C146.06 104.44 145.19 104.14 144.47 103.8C143.77 103.44 143.21 103.04 142.79 102.6C142.43 102.18 142.15 101.73 141.95 101.25C141.77 100.75 141.68 100.2 141.68 99.6C141.68 98.88 141.84 98.23 142.16 97.65C142.48 97.05 142.92 96.54 143.48 96.12C144.06 95.7 144.72 95.38 145.46 95.16C146.2 94.92 146.98 94.8 147.8 94.8C148.62 94.8 149.42 94.9 150.2 95.1C150.98 95.3 151.7 95.59 152.36 95.97C153.04 96.33 153.63 96.76 154.13 97.26L151.85 99.78C151.49 99.44 151.08 99.13 150.62 98.85C150.18 98.57 149.72 98.35 149.24 98.19C148.76 98.03 148.33 97.95 147.95 97.95C147.61 97.95 147.3 97.98 147.02 98.04C146.76 98.1 146.54 98.19 146.36 98.31C146.18 98.43 146.04 98.59 145.94 98.79C145.86 98.97 145.82 99.17 145.82 99.39C145.82 99.61 145.87 99.82 145.97 100.02C146.09 100.22 146.25 100.39 146.45 100.53C146.67 100.65 146.99 100.79 147.41 100.95C147.85 101.11 148.44 101.29 149.18 101.49C150.14 101.75 150.95 102.04 151.61 102.36C152.29 102.68 152.83 103.05 153.23 103.47C153.57 103.83 153.82 104.24 153.98 104.7C154.14 105.16 154.22 105.67 154.22 106.23C154.22 107.21 153.94 108.09 153.38 108.87C152.84 109.63 152.09 110.23 151.13 110.67C150.17 111.09 149.09 111.3 147.89 111.3Z" fill="#85C16F"/>
<path d="M158.787 111V91.11H163.047V111H158.787ZM155.817 98.94V95.13H166.287V98.94H155.817Z" fill="#85C16F"/>
<path d="M179.452 111V91.23H182.542V111H179.452ZM176.182 98.25V95.25H186.202V98.25H176.182Z" fill="#2F2929"/>
<path d="M189.015 111V95.25H192.135V100.2L191.835 99C192.055 98.24 192.425 97.55 192.945 96.93C193.485 96.31 194.095 95.82 194.775 95.46C195.475 95.1 196.195 94.92 196.935 94.92C197.275 94.92 197.595 94.95 197.895 95.01C198.215 95.07 198.465 95.14 198.645 95.22L197.835 98.58C197.595 98.48 197.325 98.4 197.025 98.34C196.745 98.26 196.465 98.22 196.185 98.22C195.645 98.22 195.125 98.33 194.625 98.55C194.145 98.75 193.715 99.04 193.335 99.42C192.975 99.78 192.685 100.21 192.465 100.71C192.245 101.19 192.135 101.72 192.135 102.3V111H189.015Z" fill="#2F2929"/>
<path d="M206.501 111.3C205.201 111.3 204.011 110.94 202.931 110.22C201.871 109.5 201.021 108.52 200.381 107.28C199.741 106.04 199.421 104.64 199.421 103.08C199.421 101.5 199.741 100.1 200.381 98.88C201.041 97.64 201.921 96.67 203.021 95.97C204.141 95.27 205.391 94.92 206.771 94.92C207.591 94.92 208.341 95.04 209.021 95.28C209.701 95.52 210.291 95.86 210.791 96.3C211.311 96.72 211.731 97.21 212.051 97.77C212.391 98.33 212.601 98.93 212.681 99.57L211.991 99.33V95.25H215.111V111H211.991V107.25L212.711 107.04C212.591 107.58 212.341 108.11 211.961 108.63C211.601 109.13 211.131 109.58 210.551 109.98C209.991 110.38 209.361 110.7 208.661 110.94C207.981 111.18 207.261 111.3 206.501 111.3ZM207.311 108.45C208.251 108.45 209.081 108.22 209.801 107.76C210.521 107.3 211.081 106.67 211.481 105.87C211.901 105.05 212.111 104.12 212.111 103.08C212.111 102.06 211.901 101.15 211.481 100.35C211.081 99.55 210.521 98.92 209.801 98.46C209.081 98 208.251 97.77 207.311 97.77C206.391 97.77 205.571 98 204.851 98.46C204.151 98.92 203.591 99.55 203.171 100.35C202.771 101.15 202.571 102.06 202.571 103.08C202.571 104.12 202.771 105.05 203.171 105.87C203.591 106.67 204.151 107.3 204.851 107.76C205.571 108.22 206.391 108.45 207.311 108.45Z" fill="#2F2929"/>
<path d="M224.234 111L217.574 95.25H220.904L225.704 107.04L225.134 107.31L230.264 95.25H233.444L226.454 111H224.234Z" fill="#2F2929"/>
<path d="M243.182 111.3C241.562 111.3 240.122 110.96 238.862 110.28C237.622 109.58 236.642 108.63 235.922 107.43C235.222 106.23 234.872 104.85 234.872 103.29C234.872 102.05 235.072 100.92 235.472 99.9C235.872 98.88 236.422 98 237.122 97.26C237.842 96.5 238.692 95.92 239.672 95.52C240.672 95.1 241.752 94.89 242.912 94.89C243.932 94.89 244.882 95.09 245.762 95.49C246.642 95.87 247.402 96.4 248.042 97.08C248.702 97.76 249.202 98.57 249.542 99.51C249.902 100.43 250.072 101.44 250.052 102.54L250.022 103.86H237.152L236.462 101.4H247.352L246.902 101.91V101.19C246.842 100.53 246.622 99.94 246.242 99.42C245.862 98.9 245.382 98.49 244.802 98.19C244.222 97.89 243.592 97.74 242.912 97.74C241.832 97.74 240.922 97.95 240.182 98.37C239.442 98.77 238.882 99.37 238.502 100.17C238.122 100.95 237.932 101.92 237.932 103.08C237.932 104.18 238.162 105.14 238.622 105.96C239.082 106.76 239.732 107.38 240.572 107.82C241.412 108.26 242.382 108.48 243.482 108.48C244.262 108.48 244.982 108.35 245.642 108.09C246.322 107.83 247.052 107.36 247.832 106.68L249.392 108.87C248.912 109.35 248.322 109.77 247.622 110.13C246.942 110.49 246.212 110.78 245.432 111C244.672 111.2 243.922 111.3 243.182 111.3Z" fill="#2F2929"/>
<path d="M253.47 111V88.8H256.56V111H253.47Z" fill="#2F2929"/>
<path d="M277.628 111.3C276.948 111.3 276.267 111.19 275.587 110.97C274.927 110.75 274.318 110.46 273.758 110.1C273.218 109.72 272.758 109.31 272.378 108.87C272.018 108.41 271.778 107.95 271.658 107.49L272.438 107.07V110.91H269.348V88.8H272.438V98.85L271.957 98.58C272.057 98.12 272.277 97.68 272.617 97.26C272.957 96.82 273.388 96.43 273.908 96.09C274.448 95.73 275.027 95.45 275.647 95.25C276.267 95.03 276.898 94.92 277.538 94.92C278.958 94.92 280.218 95.27 281.318 95.97C282.418 96.67 283.287 97.64 283.927 98.88C284.567 100.1 284.888 101.5 284.888 103.08C284.888 104.66 284.567 106.07 283.927 107.31C283.307 108.55 282.448 109.53 281.348 110.25C280.248 110.95 279.008 111.3 277.628 111.3ZM277.117 108.48C278.037 108.48 278.858 108.25 279.578 107.79C280.298 107.31 280.868 106.67 281.288 105.87C281.708 105.05 281.918 104.12 281.918 103.08C281.918 102.06 281.708 101.15 281.288 100.35C280.888 99.53 280.328 98.89 279.608 98.43C278.888 97.97 278.057 97.74 277.117 97.74C276.177 97.74 275.348 97.97 274.628 98.43C273.908 98.89 273.338 99.53 272.918 100.35C272.498 101.15 272.288 102.06 272.288 103.08C272.288 104.12 272.498 105.05 272.918 105.87C273.338 106.67 273.908 107.31 274.628 107.79C275.348 108.25 276.177 108.48 277.117 108.48Z" fill="#2F2929"/>
<path d="M295.324 111.3C293.784 111.3 292.404 110.95 291.184 110.25C289.984 109.53 289.034 108.56 288.334 107.34C287.634 106.1 287.284 104.69 287.284 103.11C287.284 101.53 287.634 100.13 288.334 98.91C289.034 97.67 289.984 96.7 291.184 96C292.404 95.28 293.784 94.92 295.324 94.92C296.844 94.92 298.204 95.28 299.404 96C300.624 96.7 301.584 97.67 302.284 98.91C302.984 100.13 303.334 101.53 303.334 103.11C303.334 104.69 302.984 106.1 302.284 107.34C301.584 108.56 300.624 109.53 299.404 110.25C298.204 110.95 296.844 111.3 295.324 111.3ZM295.324 108.48C296.264 108.48 297.104 108.25 297.844 107.79C298.584 107.31 299.164 106.67 299.584 105.87C300.004 105.05 300.204 104.13 300.184 103.11C300.204 102.07 300.004 101.15 299.584 100.35C299.164 99.53 298.584 98.89 297.844 98.43C297.104 97.97 296.264 97.74 295.324 97.74C294.384 97.74 293.534 97.98 292.774 98.46C292.034 98.92 291.454 99.56 291.034 100.38C290.614 101.18 290.414 102.09 290.434 103.11C290.414 104.13 290.614 105.05 291.034 105.87C291.454 106.67 292.034 107.31 292.774 107.79C293.534 108.25 294.384 108.48 295.324 108.48Z" fill="#2F2929"/>
<path d="M313.781 111.3C312.241 111.3 310.861 110.95 309.641 110.25C308.441 109.53 307.491 108.56 306.791 107.34C306.091 106.1 305.741 104.69 305.741 103.11C305.741 101.53 306.091 100.13 306.791 98.91C307.491 97.67 308.441 96.7 309.641 96C310.861 95.28 312.241 94.92 313.781 94.92C315.301 94.92 316.661 95.28 317.861 96C319.081 96.7 320.041 97.67 320.741 98.91C321.441 100.13 321.791 101.53 321.791 103.11C321.791 104.69 321.441 106.1 320.741 107.34C320.041 108.56 319.081 109.53 317.861 110.25C316.661 110.95 315.301 111.3 313.781 111.3ZM313.781 108.48C314.721 108.48 315.561 108.25 316.301 107.79C317.041 107.31 317.621 106.67 318.041 105.87C318.461 105.05 318.661 104.13 318.641 103.11C318.661 102.07 318.461 101.15 318.041 100.35C317.621 99.53 317.041 98.89 316.301 98.43C315.561 97.97 314.721 97.74 313.781 97.74C312.841 97.74 311.991 97.98 311.231 98.46C310.491 98.92 309.911 99.56 309.491 100.38C309.071 101.18 308.871 102.09 308.891 103.11C308.871 104.13 309.071 105.05 309.491 105.87C309.911 106.67 310.491 107.31 311.231 107.79C311.991 108.25 312.841 108.48 313.781 108.48Z" fill="#2F2929"/>
<path d="M327.978 106.08L327.828 102.72L335.358 95.25H339.528L327.978 106.08ZM325.158 111V88.8H328.248V111H325.158ZM335.778 111L329.838 104.07L332.028 102.06L339.738 111H335.778Z" fill="#2F2929"/>
<path d="M348.885 111.3C347.265 111.3 345.825 110.96 344.565 110.28C343.325 109.58 342.345 108.63 341.625 107.43C340.925 106.23 340.575 104.85 340.575 103.29C340.575 102.05 340.775 100.92 341.175 99.9C341.575 98.88 342.125 98 342.825 97.26C343.545 96.5 344.395 95.92 345.375 95.52C346.375 95.1 347.455 94.89 348.615 94.89C349.635 94.89 350.585 95.09 351.465 95.49C352.345 95.87 353.105 96.4 353.745 97.08C354.405 97.76 354.905 98.57 355.245 99.51C355.605 100.43 355.775 101.44 355.755 102.54L355.725 103.86H342.855L342.165 101.4H353.055L352.605 101.91V101.19C352.545 100.53 352.325 99.94 351.945 99.42C351.565 98.9 351.085 98.49 350.505 98.19C349.925 97.89 349.295 97.74 348.615 97.74C347.535 97.74 346.625 97.95 345.885 98.37C345.145 98.77 344.585 99.37 344.205 100.17C343.825 100.95 343.635 101.92 343.635 103.08C343.635 104.18 343.865 105.14 344.325 105.96C344.785 106.76 345.435 107.38 346.275 107.82C347.115 108.26 348.085 108.48 349.185 108.48C349.965 108.48 350.685 108.35 351.345 108.09C352.025 107.83 352.755 107.36 353.535 106.68L355.095 108.87C354.615 109.35 354.025 109.77 353.325 110.13C352.645 110.49 351.915 110.78 351.135 111C350.375 111.2 349.625 111.3 348.885 111.3Z" fill="#2F2929"/>
<path d="M359.113 111V95.25H362.233V100.2L361.933 99C362.153 98.24 362.523 97.55 363.043 96.93C363.583 96.31 364.193 95.82 364.873 95.46C365.573 95.1 366.293 94.92 367.033 94.92C367.373 94.92 367.693 94.95 367.993 95.01C368.313 95.07 368.563 95.14 368.743 95.22L367.933 98.58C367.693 98.48 367.423 98.4 367.123 98.34C366.843 98.26 366.563 98.22 366.283 98.22C365.743 98.22 365.223 98.33 364.723 98.55C364.243 98.75 363.813 99.04 363.433 99.42C363.073 99.78 362.783 100.21 362.563 100.71C362.343 101.19 362.233 101.72 362.233 102.3V111H359.113Z" fill="#2F2929"/>
<path d="M0 78.8981V1.76308H11.8707V78.8981H0ZM5.27588 46.0606V34.6006H44.9549V46.0606H5.27588ZM5.27588 13.2231V1.76308H49.9011V13.2231H5.27588Z" fill="#332F2F"/>
<path d="M66.1203 78.8981V1.76308H77.991V67.438H114.043V78.8981H66.1203Z" fill="#332F2F"/>
<path d="M135.304 78.8981V40.4408L136.074 45.8402L104.968 1.76308H126.182L149.923 35.9229L140.251 35.5923L161.684 1.76308H182.238L152.451 47.0523L154.1 39.5592V78.8981H135.304Z" fill="#85C16F"/>
<path d="M222.389 80C216.527 80 211.178 79.0083 206.342 77.0248C201.505 75.0413 197.292 72.2498 193.701 68.6501C190.111 65.0505 187.326 60.8264 185.348 55.978C183.37 51.1295 182.38 45.8035 182.38 40C182.38 34.1965 183.37 28.8705 185.348 24.022C187.326 19.1736 190.111 14.9495 193.701 11.3499C197.292 7.75023 201.505 4.95868 206.342 2.97521C211.178 0.991736 216.49 0 222.279 0C228.068 0 233.38 0.991736 238.217 2.97521C243.053 4.95868 247.266 7.75023 250.857 11.3499C254.447 14.9495 257.195 19.1736 259.1 24.022C261.079 28.8705 262.068 34.1965 262.068 40C262.068 45.73 261.079 51.056 259.1 55.978C257.195 60.8264 254.447 65.0505 250.857 68.6501C247.266 72.2498 243.053 75.0413 238.217 77.0248C233.38 79.0083 228.105 80 222.389 80ZM222.279 62.3691C225.283 62.3691 228.031 61.8182 230.523 60.7163C233.087 59.6143 235.286 58.0716 237.118 56.0882C239.023 54.0312 240.488 51.6437 241.514 48.9256C242.54 46.2075 243.053 43.2323 243.053 40C243.053 36.7677 242.54 33.7925 241.514 31.0744C240.488 28.3563 239.023 26.0055 237.118 24.022C235.286 21.9651 233.087 20.3857 230.523 19.2837C228.031 18.1818 225.283 17.6308 222.279 17.6308C219.275 17.6308 216.49 18.1818 213.926 19.2837C211.434 20.3857 209.236 21.9651 207.331 24.022C205.426 26.0055 203.96 28.3563 202.934 31.0744C201.982 33.7925 201.505 36.7677 201.505 40C201.505 43.2323 201.982 46.2443 202.934 49.0358C203.96 51.7539 205.426 54.1047 207.331 56.0882C209.236 58.0716 211.434 59.6143 213.926 60.7163C216.49 61.8182 219.275 62.3691 222.279 62.3691Z" fill="#85C16F"/>
<path d="M276.524 78.8981V1.76308H308.729C314.372 1.76308 319.537 2.71809 324.227 4.6281C328.917 6.46464 332.947 9.10927 336.318 12.562C339.762 16.0147 342.4 20.0918 344.232 24.7934C346.063 29.495 346.979 34.674 346.979 40.3306C346.979 45.9871 346.063 51.2029 344.232 55.978C342.4 60.6795 339.762 64.7567 336.318 68.2094C332.947 71.5886 328.917 74.2332 324.227 76.1432C319.537 77.9798 314.372 78.8981 308.729 78.8981H276.524ZM295.21 66.1157L292.682 62.3691H308.18C311.257 62.3691 314.005 61.8549 316.423 60.8264C318.841 59.7245 320.893 58.2186 322.578 56.3085C324.337 54.3985 325.693 52.0845 326.645 49.3664C327.598 46.6483 328.074 43.6364 328.074 40.3306C328.074 37.0248 327.598 34.0129 326.645 31.2948C325.693 28.5767 324.337 26.2626 322.578 24.3526C320.893 22.4426 318.841 20.9734 316.423 19.9449C314.005 18.843 311.257 18.292 308.18 18.292H292.352L295.21 14.7658V66.1157Z" fill="#85C16F"/>
<path d="M349.5 78.8981L379.946 1.76308H395.774L426 78.8981H407.095L392.586 39.7796C392 38.2369 391.414 36.584 390.827 34.8209C390.241 33.0579 389.655 31.258 389.069 29.4215C388.483 27.5115 387.896 25.6749 387.31 23.9118C386.797 22.0753 386.358 20.3857 385.991 18.843L389.289 18.7328C388.849 20.5693 388.336 22.3691 387.75 24.1322C387.237 25.8953 386.687 27.6584 386.101 29.4215C385.588 31.1111 385.002 32.8375 384.342 34.6006C383.683 36.2902 383.06 38.0533 382.474 39.8898L367.965 78.8981H349.5ZM364.008 64.1322L369.834 50.0275H405.226L410.942 64.1322H364.008Z" fill="#85C16F"/>
</svg>
